<?xml version="1.0" encoding="UTF-8"?>
<!DOCTYPE svg PUBLIC "-//W3C//DTD SVG 1.1//EN" "http://www.w3.org/Graphics/SVG/1.1/DTD/svg11.dtd">
<svg xmlns="http://www.w3.org/2000/svg" version="1.1" width="180px" height="25px" style="shape-rendering:geometricPrecision; text-rendering:geometricPrecision; image-rendering:optimizeQuality; fill-rule:evenodd; clip-rule:evenodd" xmlns:xlink="http://www.w3.org/1999/xlink">
<g><path style="opacity:0.633" fill="#fbfafa" d="M 26.5,2.5 C 29.5,2.5 32.5,2.5 35.5,2.5C 35.5,5.5 35.5,8.5 35.5,11.5C 26.611,13.9216 23.611,10.9216 26.5,2.5 Z"/></g>
<g><path style="opacity:0.871" fill="#faf9f9" d="M 66.5,2.5 C 65.3915,3.28997 64.0581,3.78997 62.5,4C 63.938,4.21893 65.2713,4.71893 66.5,5.5C 66.3275,10.7122 66.3275,16.0455 66.5,21.5C 67.791,21.2627 68.791,21.596 69.5,22.5C 67.8333,22.5 66.1667,22.5 64.5,22.5C 64.6658,17.8215 64.4992,13.1548 64,8.5C 62.6667,7.16667 61.3333,7.16667 60,8.5C 59.501,12.8206 59.3343,17.1539 59.5,21.5C 58.6762,17.6877 58.1762,13.6877 58,9.5C 57.5012,13.4862 57.3345,17.4862 57.5,21.5C 56.209,21.2627 55.209,21.596 54.5,22.5C 53.6753,18.3528 53.1753,14.0195 53,9.5C 50.4781,6.67361 48.4781,7.00694 47,10.5C 46.2114,14.0915 46.3781,17.5915 47.5,21C 45.4062,22.3515 43.0728,22.8515 40.5,22.5C 40.5,15.8333 40.5,9.16667 40.5,2.5C 49.1114,2.76992 57.778,2.76992 66.5,2.5 Z"/></g>
<g><path style="opacity:0.734" fill="#fbfcfc" d="M 66.5,2.5 C 68.2292,3.11746 69.7292,4.11746 71,5.5C 71.1667,8.33333 71.3333,11.1667 71.5,14C 71.4809,17.2515 70.8142,20.0849 69.5,22.5C 68.791,21.596 67.791,21.2627 66.5,21.5C 66.3275,16.0455 66.3275,10.7122 66.5,5.5C 65.2713,4.71893 63.938,4.21893 62.5,4C 64.0581,3.78997 65.3915,3.28997 66.5,2.5 Z"/></g>
<g><path style="opacity:0.813" fill="#fafafa" d="M 93.5,14.5 C 92.71,15.6085 92.21,16.9419 92,18.5C 88.8897,17.3266 88.723,17.8266 91.5,20C 90.9056,20.4643 90.2389,20.631 89.5,20.5C 84.6019,4.66976 90.1019,-0.663575 106,4.5C 106.711,6.36682 106.211,7.86682 104.5,9C 102.217,9.29124 100.05,8.79124 98,7.5C 94.4985,8.49539 92.9985,10.8287 93.5,14.5 Z"/></g>
<g><path style="opacity:0.993" fill="#faf9f8" d="M 113.5,2.5 C 112.791,3.40397 111.791,3.73731 110.5,3.5C 110.334,8.51108 110.501,13.5111 111,18.5C 112.509,20.9193 114.675,21.9193 117.5,21.5C 117.5,20.1667 117.5,18.8333 117.5,17.5C 119.017,17.4894 120.184,16.8228 121,15.5C 121.499,11.1794 121.666,6.84611 121.5,2.5C 123.5,2.5 125.5,2.5 127.5,2.5C 127.5,9.16667 127.5,15.8333 127.5,22.5C 123.588,21.8628 119.755,21.8628 116,22.5C 113.739,22.5609 111.739,21.8943 110,20.5C 108.59,14.6208 108.09,8.62076 108.5,2.5C 110.167,2.5 111.833,2.5 113.5,2.5 Z"/></g>
<g><path style="opacity:0.813" fill="#fbfcfc" d="M 113.5,2.5 C 114.943,7.37336 116.277,12.3734 117.5,17.5C 117.5,18.8333 117.5,20.1667 117.5,21.5C 114.675,21.9193 112.509,20.9193 111,18.5C 110.501,13.5111 110.334,8.51108 110.5,3.5C 111.791,3.73731 112.791,3.40397 113.5,2.5 Z"/></g>
<g><path style="opacity:0.644" fill="#fbfbfb" d="M 17.5,2.5 C 18.4959,2.41423 19.3292,2.74756 20,3.5C 21.1667,5.83333 22.3333,8.16667 23.5,10.5C 20.5719,11.4841 17.5719,11.8174 14.5,11.5C 14.9143,8.25691 15.9143,5.25691 17.5,2.5 Z"/></g>
<g><path style="opacity:1" fill="#f9f6f7" d="M 73.5,2.5 C 77.5138,2.33449 81.5138,2.50115 85.5,3C 86.3802,4.35613 86.7135,5.85613 86.5,7.5C 85.1667,7.5 83.8333,7.5 82.5,7.5C 82.5,10.8333 82.5,14.1667 82.5,17.5C 85.6802,17.1762 86.8469,18.5096 86,21.5C 81.6667,22.8333 77.3333,22.8333 73,21.5C 72.1531,18.5096 73.3198,17.1762 76.5,17.5C 76.5,14.1667 76.5,10.8333 76.5,7.5C 72.7162,7.47473 71.7162,5.80806 73.5,2.5 Z"/></g>
<g><path style="opacity:0.871" fill="#faf8f8" d="M 134.5,2.5 C 139.051,2.05271 143.384,2.71938 147.5,4.5C 146.448,8.52629 144.115,9.52629 140.5,7.5C 138.933,7.47697 137.6,7.97697 136.5,9C 139.014,10.2525 141.68,10.7525 144.5,10.5C 144.5,11.8333 144.5,13.1667 144.5,14.5C 141.833,14.5 139.167,14.5 136.5,14.5C 136.5,15.5 136.5,16.5 136.5,17.5C 139.889,17.3679 143.223,17.2012 146.5,17C 147.38,18.3561 147.714,19.8561 147.5,21.5C 141.845,23.1165 136.345,22.7832 131,20.5C 129.016,17.4157 129.182,14.4157 131.5,11.5C 129.635,7.44825 130.635,4.44825 134.5,2.5 Z"/></g>
<g><path style="opacity:0.922" fill="#fbfbfa" d="M 149.5,3.5 C 151.265,2.53862 153.265,2.20528 155.5,2.5C 155.5,7.5 155.5,12.5 155.5,17.5C 158.518,17.3354 161.518,17.502 164.5,18C 165.791,19.2917 165.791,20.4583 164.5,21.5C 159.833,21.5 155.167,21.5 150.5,21.5C 150.193,15.9066 150.527,10.4066 151.5,5C 150.956,4.28281 150.289,3.78281 149.5,3.5 Z"/></g>
<g><path style="opacity:0.698" fill="#ebe2e3" d="M 149.5,3.5 C 150.289,3.78281 150.956,4.28281 151.5,5C 150.527,10.4066 150.193,15.9066 150.5,21.5C 155.167,21.5 159.833,21.5 164.5,21.5C 159.695,22.4872 154.695,22.8205 149.5,22.5C 149.5,16.1667 149.5,9.83333 149.5,3.5 Z"/></g>
<g><path style="opacity:0.957" fill="#efeaea" d="M 59.5,21.5 C 58.0813,22.4511 56.4147,22.7845 54.5,22.5C 55.209,21.596 56.209,21.2627 57.5,21.5C 57.3345,17.4862 57.5012,13.4862 58,9.5C 58.1762,13.6877 58.6762,17.6877 59.5,21.5 Z"/></g>
<g><path style="opacity:0.878" fill="#f7f4f3" d="M 26.5,13.5 C 27.7942,14.2899 28.9609,15.2899 30,16.5C 31.3234,13.9414 33.1567,13.2747 35.5,14.5C 34.6872,15.8139 33.6872,16.9805 32.5,18C 36.6429,22.7552 35.8096,23.5886 30,20.5C 25.5311,23.5274 24.6977,22.8607 27.5,18.5C 26.6906,16.9291 26.3573,15.2624 26.5,13.5 Z"/></g>
<g><path style="opacity:1" fill="#fafafa" d="M 16.5,13.5 C 22.7055,13.0371 24.7055,15.7037 22.5,21.5C 14.8351,23.2013 12.8351,20.5347 16.5,13.5 Z"/></g>
<g><path style="opacity:0.808" fill="#f9f9f9" d="M 89.5,20.5 C 90.2389,20.631 90.9056,20.4643 91.5,20C 88.723,17.8266 88.8897,17.3266 92,18.5C 92.21,16.9419 92.71,15.6085 93.5,14.5C 94.7058,17.1391 96.7058,17.9724 99.5,17C 100.38,15.6439 100.714,14.1439 100.5,12.5C 102.5,12.5 104.5,12.5 106.5,12.5C 106.5,15.8333 106.5,19.1667 106.5,22.5C 103.072,21.6466 99.7385,21.6466 96.5,22.5C 93.8446,22.5596 91.5112,21.8929 89.5,20.5 Z"/></g>
</svg>
